<?xml version="1.0" encoding="UTF-8"?>
<svg xmlns="http://www.w3.org/2000/svg" viewBox="0 0 64 64" preserveAspectRatio="xMidYMid meet">
  <defs>
    <linearGradient id="g" x1="0" y1="0" x2="1" y2="1">
      <stop offset="0%" stop-color="#ff7a7a"/>
      <stop offset="100%" stop-color="#ff9a57"/>
    </linearGradient>
  </defs>
  <rect width="64" height="64" rx="14" fill="#ffffff"/>
  <g transform="translate(2,0) translate(32,32) scale(1.2) translate(-32,-32)">
    <path fill="url(#g)" d="M32 51c-1 0-2-.3-2.8-.9C22.1 45.6 14 39.7 9.4 32.6 6 27.4 6.6 20.8 10.6 16.8c3.9-3.9 10.2-3.9 14.1 0l1.9 1.9 1.9-1.9c3.9-3.9 10.2-3.9 14.1 0 4 4 4.6 10.6 1.2 15.8-4.6 7.1-12.7 13-19.8 17.5-.8.6-1.8.9-2.8.9z"/>
  </g>
</svg>


